<?xml version="1.0" standalone="no"?>
<!DOCTYPE svg PUBLIC "-//W3C//DTD SVG 20010904//EN"
 "http://www.w3.org/TR/2001/REC-SVG-20010904/DTD/svg10.dtd">
<svg version="1.0" xmlns="http://www.w3.org/2000/svg"
 width="2000.000000pt" height="2000.000000pt" viewBox="0 0 2000.000000 2000.000000"
 preserveAspectRatio="xMidYMid meet">

<g transform="translate(0.000000,2000.000000) scale(0.100000,-0.100000)"
fill="#000000" stroke="none">
<path d="M9850 19993 c0 -12 348 -1354 352 -1358 2 -2 90 -7 197 -12 188 -8
194 -7 201 12 42 112 460 1308 458 1310 -2 2 -74 5 -161 7 l-159 3 -161 -492
c-98 -300 -164 -486 -168 -475 -3 9 -57 235 -119 502 -62 267 -116 488 -119
491 -9 10 -321 21 -321 12z"/>
<path d="M8261 19834 c-101 -18 -186 -36 -189 -39 -8 -8 -175 -1386 -168
-1392 6 -7 299 46 307 55 4 4 12 61 18 127 7 65 13 120 14 121 5 4 420 75 422
72 1 -2 26 -54 55 -116 53 -112 53 -112 84 -107 17 3 87 16 156 28 73 13 125
27 125 34 0 14 -628 1253 -635 1252 -3 -1 -88 -16 -189 -35z m161 -522 c58
-130 108 -244 110 -251 2 -12 -27 -20 -130 -39 -73 -13 -135 -22 -136 -20 -5
6 38 548 43 548 3 0 54 -107 113 -238z"/>
<path d="M11393 19228 c-177 -337 -323 -619 -325 -627 -2 -10 33 -21 142 -42
80 -16 150 -28 155 -29 6 0 36 51 67 114 l57 114 88 -18 c48 -10 143 -28 209
-40 l122 -22 6 -52 c3 -28 8 -85 12 -128 l6 -76 157 -30 c86 -16 158 -28 159
-27 4 4 -146 1396 -150 1400 -2 2 -79 17 -173 35 -93 17 -179 34 -190 36 -18
4 -60 -71 -342 -608z m493 -255 c-2 -3 -42 3 -88 12 -45 9 -106 20 -135 26
l-51 10 100 212 c55 117 110 232 121 257 l20 45 19 -279 c10 -153 16 -281 14
-283z"/>
<path d="M7140 19592 c-80 -24 -146 -45 -147 -46 -1 -1 85 -289 192 -639 107
-350 195 -639 195 -642 0 -11 37 -3 161 35 72 22 132 40 135 40 2 0 4 6 4 13
0 16 -382 1270 -389 1278 -3 3 -71 -14 -151 -39z"/>
<path d="M12677 18941 c-120 -345 -217 -632 -217 -637 0 -11 276 -108 287
-101 5 3 67 175 138 381 71 206 131 374 132 372 2 -1 52 -211 113 -466 60
-255 111 -464 112 -465 16 -13 232 -75 237 -69 7 8 426 1220 433 1253 4 17
-278 119 -291 105 -5 -5 -66 -177 -136 -382 -70 -205 -129 -371 -131 -369 -2
2 -53 211 -113 466 -60 254 -111 464 -113 465 -6 5 -218 76 -226 76 -5 0 -106
-283 -225 -629z"/>
<path d="M6265 19275 c-113 -39 -559 -231 -562 -242 -2 -6 109 -277 248 -604
138 -327 255 -604 259 -616 9 -21 11 -21 152 39 79 33 144 61 145 62 2 1 -40
101 -91 222 l-94 219 58 27 c105 49 84 60 291 -141 l186 -180 144 61 c79 33
145 61 147 62 1 2 -94 91 -212 200 l-215 197 28 42 c40 59 51 100 51 179 0 48
-8 93 -26 146 -54 163 -133 270 -236 321 -80 40 -169 42 -273 6z m149 -317
c37 -37 76 -131 76 -183 0 -54 -37 -87 -156 -139 -59 -26 -108 -46 -109 -44
-2 2 -31 70 -65 151 -38 88 -59 152 -54 157 21 21 202 89 238 90 30 0 45 -7
70 -32z"/>
<path d="M14442 18869 c-106 -21 -226 -121 -327 -274 -77 -117 -175 -315 -216
-435 -29 -84 -33 -108 -33 -205 -1 -100 1 -114 26 -160 71 -135 243 -225 453
-238 l70 -4 0 -49 0 -49 95 -51 c52 -29 100 -53 105 -53 10 -1 366 663 367
684 1 13 -217 131 -347 188 l-105 46 -14 -22 c-48 -78 -102 -198 -92 -206 6
-5 48 -27 94 -50 l83 -42 -47 -87 c-26 -48 -50 -91 -55 -96 -10 -12 -121 27
-204 72 -143 78 -144 157 -9 422 73 143 153 255 203 284 80 46 187 10 443
-152 l127 -80 56 105 c30 57 55 106 55 108 0 2 -37 35 -82 73 -161 135 -348
240 -474 267 -76 16 -108 17 -172 4z"/>
<path d="M4810 18554 c-85 -51 -156 -100 -158 -108 -5 -23 329 -1356 340
-1356 8 0 253 143 267 156 2 2 -11 58 -30 124 -27 103 -30 123 -18 131 8 5 90
55 182 110 194 116 159 116 283 -4 l72 -69 136 82 c76 45 136 86 134 91 -5 15
-1031 939 -1042 938 -6 0 -81 -43 -166 -95z m360 -449 c149 -149 182 -187 170
-195 -74 -48 -222 -131 -226 -127 -3 3 -39 117 -80 254 -41 136 -76 254 -79
261 -11 29 38 -15 215 -193z"/>
<path d="M15365 17891 c-154 -208 -298 -413 -320 -456 -38 -73 -40 -83 -40
-164 0 -98 18 -148 83 -233 70 -94 251 -231 378 -289 164 -75 317 -49 438 75
50 49 606 798 606 813 -1 14 -240 184 -249 178 -5 -3 -135 -175 -287 -382
-246 -333 -283 -378 -320 -394 -67 -30 -153 -2 -245 80 -60 52 -83 100 -76
157 5 49 -2 38 345 508 118 160 216 295 218 300 3 11 -226 186 -243 186 -5 0
-134 -170 -288 -379z"/>
<path d="M3970 17992 c-57 -39 -340 -253 -404 -305 -118 -98 -166 -178 -166
-276 0 -66 23 -126 72 -191 89 -118 499 -609 534 -640 53 -46 99 -63 170 -63
72 1 133 25 214 86 71 53 296 256 378 339 l63 65 -84 101 -84 100 -194 -160
c-215 -178 -241 -194 -280 -180 -26 10 -139 131 -139 149 0 5 83 83 185 172
102 90 185 167 183 172 -2 4 -36 48 -77 98 l-74 90 -106 -82 c-58 -45 -149
-115 -201 -155 l-95 -74 -39 43 c-21 24 -50 61 -63 81 -45 67 -37 78 197 272
l208 173 -81 101 c-45 56 -84 101 -87 101 -3 0 -16 -8 -30 -17z"/>
<path d="M16435 16794 c-335 -178 -614 -326 -620 -328 -5 -2 42 -56 105 -120
l115 -116 105 60 c58 33 110 60 115 60 6 0 77 -67 158 -148 l148 -148 -61
-107 c-33 -58 -60 -110 -60 -114 0 -5 51 -59 113 -121 l112 -112 334 621 334
621 -139 139 c-76 76 -141 139 -144 138 -3 -1 -279 -147 -615 -325z m423 -241
c-78 -131 -143 -240 -145 -243 -2 -2 -48 41 -103 95 l-99 100 242 142 c133 79
243 143 244 143 1 0 -62 -107 -139 -237z"/>
<path d="M2840 16974 c-83 -36 -141 -88 -345 -309 l-214 -233 167 -154 c304
-280 787 -723 809 -741 21 -18 22 -17 230 208 218 238 278 315 308 397 23 64
16 156 -15 218 -34 66 -148 175 -215 206 -93 43 -165 43 -267 -1 -16 -6 -17
-4 -7 25 17 49 5 143 -25 194 -38 66 -148 162 -212 186 -65 24 -163 26 -214 4z
m175 -345 c45 -42 65 -85 57 -125 -2 -12 -43 -63 -91 -115 l-88 -93 -91 84
c-51 46 -92 88 -92 94 0 6 40 53 89 104 83 87 90 92 130 92 35 0 49 -7 86 -41z
m358 -283 c43 -18 96 -73 106 -111 15 -58 4 -77 -135 -228 l-62 -67 -106 96
-106 97 93 100 c83 91 129 126 165 127 7 0 27 -6 45 -14z"/>
<path d="M17339 15841 c-299 -223 -534 -405 -533 -413 1 -8 40 -67 88 -131
l87 -116 147 110 c81 61 168 125 194 144 l47 34 50 -69 51 -70 -130 -222 c-72
-122 -129 -227 -126 -234 12 -32 180 -244 187 -237 4 4 67 116 140 248 72 132
133 242 135 244 1 2 24 -4 50 -13 70 -24 167 -20 236 8 118 49 269 182 319
282 20 40 24 64 24 134 0 76 -3 92 -32 150 -26 51 -351 502 -391 542 -5 5
-223 -152 -543 -391z m564 -108 c78 -107 87 -123 87 -163 0 -41 -65 -111 -136
-146 -93 -45 -130 -25 -242 134 l-43 61 133 100 c73 55 134 101 134 101 1 0
31 -39 67 -87z"/>
<path d="M1973 15926 c-56 -18 -100 -46 -150 -98 -58 -60 -387 -539 -376 -548
14 -14 1087 -752 1098 -756 5 -2 49 55 97 125 l87 128 -200 138 -199 137 36
51 c70 98 37 94 315 37 134 -28 249 -49 256 -48 13 3 185 249 179 256 -4 3
-541 101 -558 102 -5 0 -8 27 -8 60 0 114 -57 211 -174 297 -153 113 -291 154
-403 119z m160 -337 c85 -43 144 -118 133 -171 -3 -16 -36 -73 -73 -127 l-66
-99 -112 77 c-61 42 -123 85 -138 96 l-28 20 60 87 c99 141 137 161 224 117z"/>
<path d="M18103 14752 c-320 -174 -585 -320 -588 -324 -4 -4 62 -134 147 -289
174 -322 216 -377 326 -431 63 -31 72 -33 177 -32 96 0 121 4 202 32 289 99
557 292 636 459 28 61 32 77 32 158 0 74 -5 101 -26 151 -29 69 -311 594 -319
594 -3 -1 -267 -144 -587 -318z m571 -236 c27 -49 52 -105 56 -123 24 -102
-79 -208 -315 -325 -190 -95 -287 -106 -355 -40 -37 35 -154 236 -148 254 2 5
156 92 343 193 l339 184 16 -27 c9 -15 38 -67 64 -116z"/>
<path d="M11628 14680 c-97 -33 -198 -82 -422 -204 -333 -183 -502 -263 -695
-328 -199 -67 -273 -78 -591 -88 -744 -25 -1146 -96 -1495 -265 -154 -74 -231
-127 -332 -226 -123 -121 -204 -265 -248 -437 -71 -279 -33 -689 91 -990 42
-103 126 -263 136 -260 3 2 181 226 393 498 213 272 406 514 429 538 54 57
162 109 252 122 123 19 222 -11 369 -110 159 -108 299 -151 486 -151 184 0
330 46 493 155 102 69 154 92 236 105 118 19 252 -17 347 -95 24 -19 215 -254
424 -522 l381 -487 42 -3 42 -3 51 108 c68 144 108 260 141 412 l27 126 0 415
c-2 986 -116 1602 -316 1706 -46 24 -143 17 -241 -16z"/>
<path d="M955 14410 c-47 -93 -85 -174 -85 -178 0 -10 1001 -963 1019 -970 3
-1 38 61 76 139 l70 141 -94 87 -93 87 96 193 c78 154 100 191 114 187 9 -2
55 -12 102 -21 47 -9 95 -18 107 -21 20 -4 30 10 94 137 39 78 67 145 62 149
-4 4 -307 58 -673 119 -366 61 -675 114 -687 116 -21 5 -31 -11 -108 -165z
m540 -195 c135 -29 248 -55 251 -58 3 -3 -22 -60 -56 -127 -55 -110 -63 -120
-78 -108 -20 15 -380 324 -402 345 -13 13 -12 13 12 8 15 -4 137 -31 273 -60z"/>
<path d="M18772 13385 c-381 -18 -695 -35 -698 -37 -2 -3 19 -71 48 -152 l53
-148 129 4 129 3 68 -190 c37 -104 68 -194 68 -200 0 -5 -45 -41 -99 -79 -55
-39 -100 -75 -100 -80 0 -13 98 -287 104 -294 4 -3 1093 796 1129 827 8 8
-122 382 -132 380 -3 -1 -318 -16 -699 -34z m343 -360 c-231 -157 -295 -199
-300 -193 -2 2 -25 61 -50 131 -39 110 -42 127 -27 128 9 0 121 11 247 23 127
13 246 24 265 25 30 1 16 -11 -135 -114z"/>
<path d="M645 13387 c-99 -33 -154 -84 -203 -188 -31 -67 -207 -607 -200 -614
4 -5 1255 -406 1272 -409 10 -1 118 322 181 537 61 206 45 331 -53 419 -118
107 -313 144 -436 84 -31 -15 -69 -43 -83 -61 l-27 -34 -13 51 c-24 92 -87
154 -198 194 -82 30 -186 39 -240 21z m192 -318 c15 -6 39 -20 52 -32 44 -41
44 -60 5 -186 -20 -64 -39 -119 -43 -123 -5 -6 -171 41 -238 66 -8 3 -1 37 24
112 38 120 49 143 72 161 20 15 90 17 128 2z m490 -114 c64 -19 103 -61 103
-113 0 -34 -65 -259 -79 -274 -5 -6 -257 66 -269 77 -7 6 82 262 97 279 16 19
66 45 87 46 6 0 33 -7 61 -15z"/>
<path d="M9143 12685 c-12 -8 -183 -221 -379 -473 -197 -251 -371 -473 -386
-493 l-29 -36 26 -104 c106 -419 149 -850 123 -1258 -18 -300 -17 -371 11
-460 46 -151 154 -333 305 -516 148 -178 500 -512 689 -652 75 -56 199 -116
287 -140 50 -14 102 -18 220 -18 149 1 159 2 250 33 125 43 199 89 350 215
483 403 789 777 881 1078 28 89 29 159 11 464 -25 409 17 837 123 1254 15 62
22 108 17 114 -151 200 -769 981 -785 992 -43 30 -98 19 -179 -34 -219 -145
-432 -211 -677 -211 -247 0 -457 64 -670 205 -91 60 -144 71 -188 40z m427
-1347 c119 -61 120 -232 1 -295 -37 -19 -59 -23 -141 -23 l-97 0 -5 -102 c-5
-116 -23 -166 -70 -199 -64 -46 -148 -43 -208 7 -51 43 -60 72 -60 189 l0 105
-92 0 c-120 0 -158 11 -201 60 -60 66 -62 151 -4 217 55 62 54 62 462 63 365
0 371 0 415 -22z m1673 8 c18 -7 47 -29 64 -49 58 -66 56 -151 -4 -217 -43
-49 -81 -60 -200 -60 l-93 0 0 -100 c0 -114 -12 -153 -59 -193 -61 -51 -144
-55 -209 -8 -47 33 -65 83 -70 199 l-5 102 -97 0 c-117 0 -171 22 -208 86 -30
52 -27 135 8 183 48 68 62 71 473 71 287 0 375 -3 400 -14z m-1007 -1185 c48
-22 80 -59 96 -112 14 -48 0 -104 -39 -150 -46 -54 -71 -59 -293 -59 -222 0
-247 5 -293 59 -56 67 -58 149 -5 216 44 56 83 65 298 65 168 0 201 -3 236
-19z m183 -682 c69 -42 99 -112 80 -184 -15 -54 -33 -78 -78 -103 -38 -22 -46
-22 -421 -22 -375 0 -383 0 -421 22 -45 25 -63 49 -78 103 -19 72 11 142 80
184 33 20 47 21 419 21 372 0 386 -1 419 -21z"/>
<path d="M7997 11403 c-17 -40 -16 -535 1 -668 24 -175 73 -375 92 -375 18 0
70 66 76 97 9 45 -12 422 -32 573 -25 197 -62 371 -82 386 -26 20 -41 17 -55
-13z"/>
<path d="M11953 11420 c-13 -5 -23 -11 -23 -14 0 -2 -9 -46 -19 -98 -36 -172
-61 -385 -72 -611 -7 -123 -9 -235 -6 -248 6 -23 62 -89 76 -89 19 0 62 167
87 333 21 143 30 615 12 681 -14 54 -21 59 -55 46z"/>
<path d="M635 10319 c-150 -22 -309 -140 -378 -281 -173 -354 78 -753 473
-750 333 2 578 322 494 646 -33 127 -127 255 -235 318 -100 59 -236 85 -354
67z"/>
<path d="M19199 10320 c-353 -54 -546 -445 -376 -764 95 -179 319 -294 515
-266 88 13 112 20 183 57 245 126 347 430 228 679 -98 207 -324 328 -550 294z"/>
<path d="M8934 8708 c9 -42 16 -132 25 -300 l9 -167 34 -29 c256 -223 993
-852 998 -852 6 0 887 751 993 847 l39 35 9 171 c5 95 13 204 18 242 5 39 7
72 5 74 -1 2 -45 -35 -96 -81 -226 -203 -338 -286 -472 -349 -295 -138 -647
-145 -949 -19 -146 61 -278 155 -514 367 -50 46 -94 83 -98 83 -3 0 -3 -10 -1
-22z"/>
<path d="M8591 7676 l-234 -234 62 -111 c35 -61 67 -111 71 -111 5 0 11 13 15
29 8 36 59 109 102 145 72 60 208 92 284 67 19 -6 164 -87 323 -180 l289 -169
68 50 c38 28 67 54 64 58 -6 10 -794 684 -803 688 -4 1 -112 -103 -241 -232z"/>
<path d="M10780 7579 c-212 -181 -393 -338 -403 -348 -17 -17 -16 -20 51 -68
l70 -51 238 140 c375 221 376 221 459 216 76 -5 148 -32 198 -74 43 -36 94
-109 102 -145 4 -16 10 -29 15 -29 4 0 36 50 71 111 l62 111 -234 234 c-129
129 -236 234 -239 234 -3 0 -178 -149 -390 -331z"/>
<path d="M1225 7345 c-546 -176 -630 -206 -627 -222 2 -10 48 -155 103 -323
74 -229 109 -320 138 -366 65 -103 137 -144 249 -144 123 0 234 40 310 114 54
51 81 103 89 167 l6 50 31 -29 c69 -66 158 -85 264 -58 127 32 215 95 259 184
38 78 38 188 -2 312 -130 410 -168 520 -178 519 -7 -1 -295 -92 -642 -204z
m519 -301 c43 -132 43 -171 -2 -202 -74 -53 -177 -50 -206 6 -19 38 -80 231
-74 237 7 7 210 73 228 74 11 1 27 -32 54 -115z m-474 -160 c44 -140 47 -162
25 -204 -24 -47 -117 -85 -177 -73 -52 10 -74 43 -119 182 -23 72 -40 133 -37
136 6 6 239 83 255 84 7 1 29 -52 53 -125z"/>
<path d="M7860 7285 c-115 -16 -169 -28 -278 -61 -81 -24 -83 -26 -77 -52 3
-15 102 -443 219 -952 l213 -925 246 -3 c190 -2 247 0 247 10 0 7 -101 452
-225 989 -124 537 -225 984 -225 993 0 18 6 18 -120 1z"/>
<path d="M12020 7284 c0 -9 -101 -455 -225 -993 -124 -537 -225 -982 -225
-989 0 -10 57 -12 247 -10 l246 3 219 949 c158 689 215 952 207 957 -24 14
-196 59 -284 73 -164 26 -185 27 -185 10z"/>
<path d="M17922 6963 c-34 -98 -62 -182 -62 -188 1 -11 1103 -828 1123 -833 7
-1 32 56 64 147 l51 149 -104 72 c-78 54 -103 77 -99 89 4 9 36 100 73 204
l66 187 46 -5 c25 -2 81 -7 126 -10 l81 -6 52 143 c28 79 51 149 51 156 0 6
-10 12 -22 12 -13 0 -313 14 -668 30 -355 16 -661 30 -680 30 l-35 0 -63 -177z
m565 -126 c133 -13 245 -25 247 -28 10 -9 -82 -254 -94 -251 -11 2 -427 277
-444 293 -14 13 17 11 291 -14z"/>
<path d="M8820 6790 l0 -330 23 5 c12 4 127 36 255 73 l233 67 1 108 1 108
-239 140 c-132 78 -247 145 -256 150 -17 9 -18 -9 -18 -321z"/>
<path d="M10921 6970 l-254 -149 1 -108 1 -108 252 -72 c139 -40 254 -71 256
-69 2 1 2 149 1 329 l-3 325 -254 -148z"/>
<path d="M7035 6925 c-82 -62 -167 -130 -187 -152 l-38 -39 140 -699 c77 -385
142 -710 145 -722 l5 -23 245 0 c135 0 245 2 245 4 0 8 -400 1740 -403 1742
-1 1 -69 -49 -152 -111z"/>
<path d="M12810 7037 c0 -3 -90 -395 -200 -872 -110 -477 -200 -868 -200 -871
0 -2 110 -4 245 -4 l245 0 5 23 c3 12 68 337 145 722 l140 699 -38 39 c-20 22
-100 87 -177 145 -77 58 -146 109 -152 115 -7 5 -13 7 -13 4z"/>
<path d="M9864 6942 c-101 -35 -185 -120 -199 -201 -24 -142 141 -281 335
-281 194 0 359 139 335 281 -14 83 -107 174 -209 204 -68 20 -198 19 -262 -3z"/>
<path d="M6512 6277 c-51 -111 -262 -779 -262 -830 0 -52 28 -100 79 -134 32
-22 43 -23 227 -23 178 0 194 1 194 18 -1 9 -47 247 -104 527 l-103 510 -31
-68z"/>
<path d="M13352 5823 c-57 -285 -103 -522 -102 -526 0 -5 91 -7 203 -5 184 3
204 5 229 23 39 29 68 86 68 135 0 68 -270 890 -292 890 -2 0 -50 -233 -106
-517z"/>
<path d="M9285 6241 c-110 -31 -200 -62 -200 -67 0 -5 112 -207 250 -447 l249
-437 416 0 416 0 249 437 c138 240 250 442 250 447 0 10 -74 33 -307 97 l-118
32 -57 -40 c-141 -99 -263 -137 -433 -137 -168 0 -314 46 -433 137 -26 21 -55
37 -65 36 -9 0 -107 -26 -217 -58z"/>
<path d="M8570 6221 c0 -7 47 -217 105 -468 58 -250 105 -456 105 -459 0 -2
93 -4 206 -4 161 0 205 3 201 13 -3 6 -110 196 -239 422 -225 391 -237 410
-279 433 -24 12 -56 35 -71 49 -16 15 -28 21 -28 14z"/>
<path d="M11400 6206 c-14 -14 -45 -36 -69 -48 -42 -23 -54 -41 -279 -433
-129 -226 -236 -416 -239 -422 -4 -10 40 -13 201 -13 113 0 206 2 206 4 0 3
47 210 105 461 58 252 105 461 103 466 -2 5 -14 -2 -28 -15z"/>
<path d="M1691 6034 c-365 -63 -666 -116 -668 -118 -8 -8 137 -286 150 -286 6
1 63 11 125 24 l113 24 96 -191 95 -191 -93 -87 -94 -87 70 -141 c38 -78 73
-141 77 -141 8 0 1011 948 1016 961 2 4 -35 84 -83 178 -80 161 -87 171 -113
170 -15 -1 -326 -53 -691 -115z m554 -183 c-34 -30 -393 -339 -407 -349 -15
-12 -23 -2 -78 108 -34 67 -59 124 -57 126 3 4 515 120 542 123 6 1 6 -2 0 -8z"/>
<path d="M17736 6110 c-67 -17 -156 -72 -201 -124 -49 -55 -359 -616 -347
-627 9 -9 1169 -639 1176 -639 11 0 303 550 323 610 72 209 -25 402 -288 573
-252 164 -512 245 -663 207z m217 -329 c29 -10 90 -37 137 -61 224 -112 332
-221 315 -318 -8 -50 -130 -268 -147 -264 -15 4 -659 351 -671 362 -10 9 106
224 142 263 46 50 115 55 224 18z"/>
<path d="M2298 4922 c-301 -207 -547 -381 -548 -385 0 -9 159 -245 170 -252 4
-2 94 56 201 130 l194 135 27 -33 c15 -17 37 -50 49 -73 l22 -40 -131 -205
c-72 -112 -134 -212 -137 -221 -4 -11 21 -56 76 -135 45 -65 85 -122 89 -126
4 -5 72 98 150 230 79 131 146 242 150 246 4 5 35 -1 68 -12 34 -12 79 -21
101 -21 145 0 378 154 450 298 52 104 47 214 -16 322 -42 72 -353 520 -361
519 -4 0 -253 -170 -554 -377z m564 -124 c72 -108 80 -124 80 -165 0 -43 -53
-103 -124 -139 -61 -31 -108 -31 -145 0 -41 35 -148 195 -137 205 14 14 258
181 265 181 3 0 30 -37 61 -82z"/>
<path d="M17050 5021 c-51 -17 -106 -51 -149 -93 -49 -48 -393 -504 -395 -523
-1 -10 543 -423 1020 -776 l53 -39 88 120 c48 66 89 124 91 129 1 4 -83 72
-188 151 l-190 142 31 42 c16 22 40 53 52 68 l23 28 244 -60 c134 -34 250 -59
256 -58 22 5 194 242 181 249 -7 4 -131 32 -277 64 -146 31 -267 59 -269 61
-3 2 -5 37 -6 77 -1 52 -8 85 -25 120 -46 97 -168 204 -305 268 -71 34 -182
48 -235 30z m164 -351 c94 -60 133 -129 106 -188 -6 -15 -41 -66 -76 -114
l-65 -86 -134 100 c-91 67 -133 104 -127 112 5 6 36 48 70 93 34 45 72 89 84
97 36 25 88 20 142 -14z"/>
<path d="M3055 3890 c-270 -247 -490 -454 -490 -459 0 -14 328 -372 423 -463
93 -88 155 -121 239 -126 78 -5 135 13 216 71 143 102 208 253 164 380 l-15
45 36 -15 c54 -22 147 -13 211 22 68 38 156 131 188 202 50 108 26 233 -64
345 -47 58 -406 448 -413 448 -3 0 -226 -202 -495 -450z m589 -65 c47 -52 88
-106 92 -121 16 -63 -74 -154 -152 -154 -41 0 -46 4 -127 93 -47 50 -86 96
-87 100 -1 7 178 177 186 177 1 0 41 -43 88 -95z m-263 -467 c18 -43 3 -94
-41 -138 -48 -48 -100 -65 -144 -46 -32 13 -211 197 -211 216 0 5 45 51 100
101 l100 91 92 -99 c51 -54 98 -110 104 -125z"/>
<path d="M15968 3843 l-137 -138 332 -617 c183 -339 335 -619 338 -622 3 -3
56 46 118 108 l113 113 -61 106 c-34 58 -61 110 -61 114 0 5 67 75 149 157
l149 149 109 -60 108 -61 113 111 c61 62 112 115 112 118 0 6 -1212 651 -1235
657 -5 1 -72 -60 -147 -135z m445 -339 c128 -75 234 -138 237 -140 2 -3 -41
-50 -96 -104 l-99 -100 -130 216 c-148 246 -158 264 -150 264 3 0 110 -61 238
-136z"/>
<path d="M4327 3356 c-21 -8 -55 -25 -77 -39 -30 -21 -330 -372 -542 -637 -62
-77 -82 -127 -82 -200 -1 -84 33 -148 124 -233 72 -68 267 -219 399 -309 l83
-57 85 101 c68 82 82 103 71 113 -7 7 -94 79 -193 160 -99 81 -188 156 -197
167 -21 23 -23 69 -6 101 16 31 99 127 109 127 5 0 95 -67 201 -150 106 -82
196 -150 199 -150 3 0 40 42 82 94 l77 94 -190 168 c-159 140 -187 170 -180
185 6 10 36 45 68 78 88 93 74 98 357 -137 94 -78 175 -141 180 -141 10 0 152
170 161 192 10 26 -426 409 -515 453 -67 32 -158 41 -214 20z"/>
<path d="M15366 3266 l-127 -93 269 -364 c148 -200 276 -376 286 -391 45 -69
13 -161 -84 -237 -96 -76 -201 -92 -256 -40 -14 13 -148 189 -297 392 -149
202 -274 367 -279 367 -13 0 -248 -174 -245 -183 8 -27 555 -755 607 -808 80
-80 141 -110 237 -117 129 -8 257 48 439 193 92 72 150 139 192 219 24 45 27
62 27 146 0 86 -3 101 -31 160 -22 46 -488 694 -609 847 -1 2 -59 -39 -129
-91z"/>
<path d="M5006 2163 c-284 -256 -516 -470 -516 -474 0 -8 253 -159 267 -159 5
0 49 38 99 84 l90 84 174 -105 c96 -58 179 -108 183 -113 5 -4 -5 -58 -23
-120 -17 -62 -29 -118 -26 -125 5 -14 265 -170 271 -163 6 6 335 1335 335
1353 0 13 -307 205 -328 205 -5 0 -242 -210 -526 -467z m468 -139 c-42 -143
-78 -260 -79 -262 -1 -1 -57 30 -124 70 l-121 73 197 191 c109 106 199 190
201 189 2 -1 -32 -119 -74 -261z"/>
<path d="M14320 2495 c-231 -63 -460 -184 -539 -284 -73 -91 -100 -198 -81
-315 16 -98 42 -171 116 -326 120 -249 260 -427 381 -487 51 -24 69 -28 149
-28 84 0 95 2 168 38 84 42 195 138 248 214 l29 44 40 -32 39 -31 103 55 c56
30 101 59 100 65 -3 11 -352 674 -360 682 -13 14 -443 -230 -443 -252 0 -5 25
-57 56 -114 l55 -103 93 50 94 50 50 -93 51 -93 -37 -34 c-53 -48 -178 -119
-223 -126 -88 -15 -156 48 -268 250 -145 261 -161 369 -67 452 45 39 230 136
373 193 l82 33 -57 109 c-31 59 -59 107 -62 107 -3 0 -43 -11 -90 -24z"/>
<path d="M6101 1539 c-144 -342 -261 -622 -259 -624 2 -1 67 -30 145 -62 l141
-60 93 218 c51 121 97 219 104 219 7 0 43 -13 79 -30 l66 -29 2 -262 3 -262
149 -63 148 -63 -6 152 c-3 84 -7 215 -8 292 -3 133 -2 140 17 143 159 26 260
130 331 337 39 116 40 228 1 307 -30 61 -79 111 -148 151 -33 20 -582 257
-593 257 -2 0 -121 -279 -265 -621z m582 181 c132 -56 156 -114 98 -236 -35
-74 -70 -104 -123 -104 -42 0 -238 77 -238 94 0 5 28 76 62 157 l62 147 31
-12 c16 -8 65 -28 108 -46z"/>
<path d="M13210 1968 c-79 -27 -146 -51 -147 -52 -2 -2 55 -173 127 -381 72
-208 129 -379 127 -381 -1 -2 -171 131 -377 296 l-373 298 -46 -17 c-25 -10
-76 -28 -113 -40 -38 -13 -68 -28 -68 -34 0 -12 429 -1259 435 -1266 5 -4 276
88 287 98 4 3 -51 174 -122 380 -72 206 -128 376 -126 378 2 2 171 -129 375
-292 l371 -297 108 36 c59 20 112 40 118 44 7 4 -64 222 -207 637 -120 347
-220 633 -221 636 -2 4 -68 -16 -148 -43z"/>
<path d="M7490 1706 c0 -2 -88 -291 -195 -642 -107 -351 -193 -640 -190 -642
10 -11 290 -91 295 -84 16 18 391 1275 384 1282 -9 8 -268 90 -285 90 -5 0 -9
-2 -9 -4z"/>
<path d="M11581 1501 c-101 -20 -186 -40 -188 -46 -5 -17 -153 -1389 -149
-1392 3 -3 307 54 311 59 2 2 8 59 14 127 6 69 13 125 14 126 5 3 403 75 412
75 6 0 35 -50 65 -110 30 -61 59 -110 65 -110 5 0 77 12 158 27 93 17 147 32
145 39 -6 24 -650 1244 -656 1243 -4 -1 -90 -18 -191 -38z m184 -545 c59 -125
103 -232 98 -236 -11 -10 -252 -54 -259 -47 -3 3 2 113 10 245 9 133 16 258
16 279 1 38 1 38 14 13 8 -14 62 -128 121 -254z"/>
<path d="M8363 1498 c-6 -7 -151 -291 -322 -630 -296 -586 -311 -618 -289
-623 13 -3 77 -14 143 -26 66 -11 127 -22 136 -25 11 -3 29 25 69 111 29 63
58 115 64 115 14 0 409 -70 412 -73 1 -1 8 -58 15 -127 l14 -125 154 -28 c84
-15 156 -25 159 -22 11 10 -160 1380 -174 1391 -7 5 -86 23 -176 38 -90 15
-170 29 -179 32 -9 2 -21 -1 -26 -8z m172 -596 c10 -138 16 -254 14 -256 -9
-9 -264 40 -264 50 0 6 49 120 109 253 78 173 112 238 116 225 4 -11 15 -133
25 -272z"/>
<path d="M10710 1373 l-45 -4 -114 -487 c-63 -268 -117 -496 -121 -506 -6 -18
-105 271 -294 860 l-36 111 -118 -4 c-142 -5 -202 -11 -202 -23 0 -10 458
-1312 464 -1317 5 -5 385 13 390 18 2 2 76 287 166 634 89 347 168 651 175
678 l14 47 -117 -2 c-64 -1 -137 -3 -162 -5z"/>
</g>
</svg>
